<svg xmlns="http://www.w3.org/2000/svg" xmlns:xlink="http://www.w3.org/1999/xlink" width="204.424" height="150" viewBox="0 0 204.424 150">
  <defs>
    <linearGradient id="linear-gradient" x1="0.961" y1="0.409" x2="-0.03" y2="0.444" gradientUnits="objectBoundingBox">
      <stop offset="0" stop-color="#fffbec"/>
      <stop offset="1" stop-color="#ffeebe"/>
    </linearGradient>
    <clipPath id="clip-path">
      <rect id="Rectangle_10182" data-name="Rectangle 10182" width="192.598" height="149.793" transform="translate(0 6.417)" fill="none"/>
    </clipPath>
  </defs>
  <g id="Group_14939" data-name="Group 14939" transform="translate(-889 -172)">
    <path id="Subtraction_30" data-name="Subtraction 30" d="M197.424,150H20.372a61.342,61.342,0,0,1-9.342-10.158,60.981,60.981,0,0,1-6.846-11.66,48.271,48.271,0,0,1-4-15.125C-1.029,99.722,3.854,86.535,14.692,73.866c18.645-21.8,19.2-40.718,16.375-52.754A51.5,51.5,0,0,0,24.56,5.61,38.808,38.808,0,0,0,20.372,0H197.424a7.008,7.008,0,0,1,7,7V143A7.008,7.008,0,0,1,197.424,150Z" transform="translate(1093.424 322.002) rotate(180)" fill="url(#linear-gradient)"/>
    <g id="Group_14846" data-name="Group 14846" transform="translate(894.914 165.79)">
      <g id="Group_14845" data-name="Group 14845" clip-path="url(#clip-path)">
        <path id="Path_10254" data-name="Path 10254" d="M237.939,435.108a56.84,56.84,0,0,1,4.005-21.732l-.425-.227a57.43,57.43,0,0,0-4.047,21.959h.467" transform="translate(-184.298 -320.638)" fill="#fff"/>
        <path id="Path_10255" data-name="Path 10255" d="M237.91,435.062h-.491v-.012a57.565,57.565,0,0,1,4.048-21.963l0-.012.446.238,0,.01a56.948,56.948,0,0,0-4,21.727Zm-.467-.024h.443a56.966,56.966,0,0,1,4-21.715l-.4-.215a57.539,57.539,0,0,0-4.041,21.93" transform="translate(-184.257 -320.581)" fill="#eee3e3"/>
        <path id="Path_10256" data-name="Path 10256" d="M391.048,292.771a45.986,45.986,0,0,1,18.013-.692l.076-.5a46.464,46.464,0,0,0-18.2.7l.112.5" transform="translate(-303.399 -225.833)" fill="#fff"/>
        <path id="Path_10257" data-name="Path 10257" d="M390.989,292.744l-.117-.519.012,0a46.49,46.49,0,0,1,18.205-.7l.012,0-.08.527-.012,0a45.991,45.991,0,0,0-18.008.693Zm-.089-.5.107.473A46.008,46.008,0,0,1,409,292.023l.073-.48a46.473,46.473,0,0,0-18.173.7" transform="translate(-303.349 -225.791)" fill="#eee3e3"/>
        <path id="Path_10258" data-name="Path 10258" d="M496.164,299.586a43.177,43.177,0,0,1,16.509,8.992l.3-.4A43.623,43.623,0,0,0,496.3,299.1l-.133.49" transform="translate(-385.065 -232.123)" fill="#fff"/>
        <path id="Path_10259" data-name="Path 10259" d="M512.624,308.545l-.01-.009a42.9,42.9,0,0,0-16.5-8.989l-.011,0,.139-.513.012,0a44.559,44.559,0,0,1,8.777,3.589,43.006,43.006,0,0,1,7.909,5.5l.008.008Zm-16.5-9.018a44.07,44.07,0,0,1,8.675,3.549,42.572,42.572,0,0,1,7.817,5.434l.29-.378a43.346,43.346,0,0,0-16.656-9.072Z" transform="translate(-385.013 -232.072)" fill="#eee3e3"/>
        <path id="Path_10260" data-name="Path 10260" d="M580.8,350.531a43.643,43.643,0,0,1,8.527,12.687l.419-.24a44.1,44.1,0,0,0-8.616-12.819l-.33.373" transform="translate(-450.748 -271.752)" fill="#fff"/>
        <path id="Path_10261" data-name="Path 10261" d="M589.263,363.174l-.005-.012a43.675,43.675,0,0,0-8.525-12.683l-.008-.008.087-.1.259-.292.009.009a44.149,44.149,0,0,1,8.618,12.823l0,.01Zm-8.505-12.7a43.7,43.7,0,0,1,8.516,12.67l.4-.228a44.122,44.122,0,0,0-8.6-12.8Z" transform="translate(-450.691 -271.691)" fill="#eee3e3"/>
        <path id="Path_10262" data-name="Path 10262" d="M269.542,336.285a42.376,42.376,0,0,1,13.867-14.249l-.249-.438A42.817,42.817,0,0,0,269.149,336l.393.29" transform="translate(-208.882 -249.587)" fill="#fff"/>
        <path id="Path_10263" data-name="Path 10263" d="M269.491,336.245l-.413-.3.006-.009a43.437,43.437,0,0,1,6.306-8.193,42.748,42.748,0,0,1,7.71-6.209l.011-.007.261.459-.01.006A42.193,42.193,0,0,0,269.5,336.233Zm-.381-.311.374.276a42.994,42.994,0,0,1,6.234-8.1,42.318,42.318,0,0,1,7.621-6.138l-.237-.418a42.633,42.633,0,0,0-13.992,14.378" transform="translate(-208.827 -249.529)" fill="#eee3e3"/>
        <path id="Path_10264" data-name="Path 10264" d="M63.1,246.694c5.89,0,9,7.362,14.894,7.362,6.344,0,15.464-7.362,21.808-7.362-1.357-12.5,2.078-23.221,8.965-31.146,6.846-7.925,17.144-13.058,28.551-14.4a49.22,49.22,0,0,1,34.071,8.375c10.191,7.256,18.142,19.311,19.5,37.168h4.588c1.357-19.386-4.658-35.264-15.417-46.63-10.716-11.366-26.176-18.22-42.744-19.558-16.526-1.338-34.16,2.839-48.264,13.536-14.062,10.7-24.594,27.913-25.951,52.652" transform="translate(-48.971 -139.9)" fill="#fff"/>
        <path id="Path_10267" data-name="Path 10267" d="M617.8,462.757l6.184-16.6-6.316,3.268-7.431-3.268Z" transform="translate(-473.592 -346.255)" fill="#fff"/>
        <path id="Path_10268" data-name="Path 10268" d="M440.67,604.195H419.481a1.452,1.452,0,1,1,0-2.9H440.67a1.452,1.452,0,1,1,0,2.9" transform="translate(-328.026 -458.115)" fill="#e49534"/>
        <path id="Path_10269" data-name="Path 10269" d="M438.836,591.248H417.468a1.449,1.449,0,1,1,0-2.9h21.369a1.449,1.449,0,1,1,0,2.9" transform="translate(-323.509 -448.145)" fill="#ffbe6e"/>
        <rect id="Rectangle_10177" data-name="Rectangle 10177" width="79.487" height="8.32" transform="translate(5.686 121.161)" fill="#ee5a44"/>
        <path id="Path_10271" data-name="Path 10271" d="M87.077,522.846a153.5,153.5,0,0,0-57.382-17.194q1.111-13.009,2.222-26.019a177.476,177.476,0,0,1,66.346,19.88L87.077,522.846" transform="translate(-23.046 -372.235)" fill="#ffefc5"/>
        <path id="Path_10272" data-name="Path 10272" d="M37.564,507.659l1.514-16.227a3.72,3.72,0,0,0,4.211-3.083,176.188,176.188,0,0,1,55.628,16.668,3.955,3.955,0,0,0,2.028,4.953l-6.868,14.623a3.3,3.3,0,0,0-4.584,1.62,154.719,154.719,0,0,0-48.849-14.637,3.5,3.5,0,0,0-3.08-3.916" transform="translate(-29.153 -379)" fill="#fff"/>
        <path id="Path_10273" data-name="Path 10273" d="M159.987,536.858a9.006,9.006,0,0,1-11.219,5.6,9.611,9.611,0,0,1-6.548-11.087c1.036-4.823,6.162-7.712,11.359-6.105s8.022,6.945,6.408,11.589" transform="translate(-110.214 -407.305)" fill="#4cb494"/>
        <path id="Path_10274" data-name="Path 10274" d="M165.182,549.957q.194-.779.387-1.558a8.435,8.435,0,0,1-1.884-.882,1.006,1.006,0,0,1-.363-1.305l.029-.054a.966.966,0,0,1,1.394-.34,6.206,6.206,0,0,0,1.727.8c.944.264,1.682.094,1.853-.561.161-.62-.268-1.172-1.41-1.929-1.651-1.09-2.705-2.229-2.342-3.829.329-1.449,1.667-2.317,3.616-2.146l.382-1.56q.859.238,1.717.485l-.368,1.441a7.926,7.926,0,0,1,1.525.68,1,1,0,0,1,.4,1.357,1.015,1.015,0,0,1-1.418.3,5.662,5.662,0,0,0-1.455-.642c-1.119-.318-1.593.046-1.705.5-.133.543.384,1.048,1.692,1.987,1.841,1.274,2.391,2.426,1.987,3.889s-1.777,2.36-3.74,2.144l-.431,1.668q-.794-.229-1.591-.449" transform="translate(-126.667 -416.439)" fill="#367e68"/>
        <path id="Path_10275" data-name="Path 10275" d="M82.8,535.687q-6.853-1.581-13.826-2.573.161-1.251.322-2.5,7.065,1,14.02,2.609l-.516,2.466" transform="translate(-53.526 -411.799)" fill="#4cb494"/>
        <path id="Path_10276" data-name="Path 10276" d="M244.867,581.891q-6.377-3.119-12.966-5.675l.833-2.368q6.675,2.59,13.148,5.754l-1.015,2.289" transform="translate(-179.975 -445.354)" fill="#4cb494"/>
        <path id="Path_10277" data-name="Path 10277" d="M102.312,459.342a138.608,138.608,0,0,0-51.9,22.821L37.6,460.064a160.268,160.268,0,0,1,60.012-26.386l4.7,25.664" transform="translate(-29.182 -336.57)" fill="#ffefc5"/>
        <path id="Path_10278" data-name="Path 10278" d="M61.453,485.808l-7.892-13.864a4.076,4.076,0,0,0,1.4-5.129,159.056,159.056,0,0,1,50.317-22.123,3.514,3.514,0,0,0,4.247,2.648l3.05,15.993a3.48,3.48,0,0,0-2.484,4.2A139.67,139.67,0,0,0,65.9,486.963a3.018,3.018,0,0,0-4.448-1.155" transform="translate(-41.568 -345.118)" fill="#fff"/>
        <path id="Path_10279" data-name="Path 10279" d="M168.968,493.712A9.705,9.705,0,0,1,163.8,505.3a8.343,8.343,0,0,1-10.989-4.651,9.368,9.368,0,0,1,5-12.077,8.1,8.1,0,0,1,11.165,5.139" transform="translate(-118.055 -378.615)" fill="#ffefc5"/>
        <path id="Path_10280" data-name="Path 10280" d="M179.175,513.319l-.579-1.485a7.334,7.334,0,0,1-1.88.5.913.913,0,0,1-.992-.807l-.009-.062a1,1,0,0,1,.84-1.157,5.406,5.406,0,0,0,1.718-.462c.843-.39,1.294-1,1.057-1.624-.225-.6-.849-.761-2.112-.637-1.824.183-3.234-.052-3.854-1.555a3.325,3.325,0,0,1,1.477-4.006l-.584-1.483q.766-.358,1.537-.706l.529,1.379a6.911,6.911,0,0,1,1.5-.43.909.909,0,0,1,1.047.826,1.045,1.045,0,0,1-.88,1.14,4.962,4.962,0,0,0-1.431.416c-1,.459-1.151,1.049-.979,1.486.2.516.866.588,2.352.5,2.066-.158,3.112.409,3.626,1.828a3.473,3.473,0,0,1-1.57,4.083l.608,1.6q-.713.323-1.423.654" transform="translate(-134.37 -387.911)" fill="#fff"/>
        <path id="Path_10281" data-name="Path 10281" d="M101.421,544.2q-5.937,3.1-11.635,6.747l-1.151-2.194q5.773-3.695,11.8-6.841l.988,2.288" transform="translate(-68.788 -420.571)" fill="#e2c4c4"/>
        <path id="Path_10282" data-name="Path 10282" d="M248.019,487.334q-6.439,1.576-12.722,3.734l-.7-2.412q6.366-2.186,12.9-3.786l.522,2.465" transform="translate(-182.067 -376.299)" fill="#ffefc5"/>
        <path id="Path_10283" data-name="Path 10283" d="M113.621,520.442a140.646,140.646,0,0,0-56.769,8.32L49.3,503.978a162.62,162.62,0,0,1,65.638-9.62q-.66,13.042-1.32,26.084" transform="translate(-38.264 -383.434)" fill="#ffefc5"/>
        <path id="Path_10284" data-name="Path 10284" d="M66.254,528.4l-4.595-15.51a3.924,3.924,0,0,0,2.579-4.594,161.391,161.391,0,0,1,55.034-8.066,3.711,3.711,0,0,0,3.593,3.689q-.351,8.143-.7,16.287a3.366,3.366,0,0,0-3.442,3.409,141.72,141.72,0,0,0-48.328,7.083,3.19,3.19,0,0,0-4.14-2.3" transform="translate(-47.853 -388.168)" fill="#fff"/>
        <path id="Path_10285" data-name="Path 10285" d="M184.6,524.578a9.341,9.341,0,0,1-7.826,9.844,8.842,8.842,0,0,1-9.81-7.415,9.027,9.027,0,0,1,7.765-10.363,8.563,8.563,0,0,1,9.871,7.934" transform="translate(-129.476 -400.891)" fill="#ffefc5"/>
        <path id="Path_10286" data-name="Path 10286" d="M108.75,559.038q-6.607,1.426-13.105,3.444l-.63-2.429q6.583-2.045,13.289-3.492l.447,2.477" transform="translate(-73.74 -431.938)" fill="#4cb494"/>
        <path id="Path_10287" data-name="Path 10287" d="M269.789,543.7q-6.75-.183-13.482.239-.066-1.26-.132-2.52,6.82-.427,13.671-.242l-.057,2.524" transform="translate(-198.814 -419.955)" fill="#4cb494"/>
        <path id="Path_10374" data-name="Path 10374" d="M0,0H79.487V34.983H0Z" transform="translate(5.686 121.161)" fill="#e2c4c4"/>
        <rect id="Rectangle_10179" data-name="Rectangle 10179" width="72.359" height="2.717" transform="translate(8.615 122.884)" fill="#eee3e3"/>
        <rect id="Rectangle_10180" data-name="Rectangle 10180" width="33.739" height="0.902" transform="translate(9.534 130.093)" fill="#eee3e3"/>
        <path id="Path_10288" data-name="Path 10288" d="M291.263,598.453a7.514,7.514,0,1,1-10.467-1.834,7.514,7.514,0,0,1,10.467,1.834" transform="translate(-215.439 -461.968)" fill="#ffbe6e"/>
        <path id="Path_10289" data-name="Path 10289" d="M294.463,603.337a6.305,6.305,0,1,1-8.783-1.539,6.305,6.305,0,0,1,8.783,1.539" transform="translate(-219.629 -466.157)" fill="#e49534"/>
        <path id="Path_10290" data-name="Path 10290" d="M302.648,617.339l-.275-1.016a5.113,5.113,0,0,1-1.342.118.641.641,0,0,1-.607-.631v-.041a.639.639,0,0,1,.679-.648,3.725,3.725,0,0,0,1.214-.114c.61-.165.963-.513.848-.941-.11-.406-.521-.57-1.385-.624-1.249-.076-2.174-.4-2.455-1.437a2.047,2.047,0,0,1,1.293-2.393l-.275-1.016,1.048-.284.255.941a4.731,4.731,0,0,1,1.014-.123.641.641,0,1,1-.014,1.281,3.407,3.407,0,0,0-.976.121c-.7.188-.839.548-.758.848.1.353.53.476,1.532.573,1.394.105,2.067.554,2.327,1.517a2.123,2.123,0,0,1-1.369,2.494l.295,1.091Z" transform="translate(-232.247 -472.102)" fill="#fff"/>
        <path id="Path_10291" data-name="Path 10291" d="M227.411,560.761a7.514,7.514,0,1,1-7.514-7.514,7.514,7.514,0,0,1,7.514,7.514" transform="translate(-164.827 -429.366)" fill="#ffbe6e"/>
        <path id="Path_10292" data-name="Path 10292" d="M230.392,564.95a6.305,6.305,0,1,1-6.305-6.3,6.3,6.3,0,0,1,6.305,6.3" transform="translate(-169.017 -433.555)" fill="#e49534"/>
        <rect id="Rectangle_10181" data-name="Rectangle 10181" width="34.031" height="18.238" transform="translate(46.943 135.728)" fill="#eee3e3"/>
        <path id="Path_10294" data-name="Path 10294" d="M296.352,650.209H277.96a1.75,1.75,0,0,0,0,3.458h-2.385a1.75,1.75,0,0,0,0,3.458h.413a1.618,1.618,0,0,0-1.477,1.729,1.977,1.977,0,0,0,.124.694h21.716Z" transform="translate(-211.178 -504.616)" fill="#fff7df"/>
        <path id="Path_10295" data-name="Path 10295" d="M0,692.865H0a.661.661,0,0,0,.709.6H177.448a.608.608,0,1,0,0-1.2H.709a.661.661,0,0,0-.709.6" transform="translate(0 -537.255)" fill="#fffdf8"/>
        <path id="Path_10296" data-name="Path 10296" d="M305.757,681.686H285.446a1.476,1.476,0,0,1,0-2.951h20.312a1.476,1.476,0,0,1,0,2.951" transform="translate(-220.384 -526.755)" fill="#e49534"/>
        <path id="Path_10297" data-name="Path 10297" d="M303.913,668.506H283.6a1.476,1.476,0,1,1,0-2.951h20.312a1.476,1.476,0,0,1,0,2.951" transform="translate(-218.953 -516.526)" fill="#ffbe6e"/>
        <path id="Path_10298" data-name="Path 10298" d="M314.559,655.326H294.247a1.476,1.476,0,1,1,0-2.951h20.312a1.476,1.476,0,1,1,0,2.951" transform="translate(-227.215 -506.297)" fill="#e49534"/>
        <path id="Path_10299" data-name="Path 10299" d="M201.24,33.316l-.219-1.505,1.116-1.033a.209.209,0,0,0-.107-.359l-1.5-.257-.638-1.381a.209.209,0,0,0-.375-.01l-.708,1.346-1.51.18a.209.209,0,0,0-.125.353l1.062,1.089-.3,1.492a.209.209,0,0,0,.3.228l1.364-.673,1.328.742a.209.209,0,0,0,.309-.212" transform="translate(-152.979 -22.242)" fill="#ffbe6e"/>
        <path id="Path_10300" data-name="Path 10300" d="M115.631,99.549l-.219-1.505,1.116-1.033a.209.209,0,0,0-.107-.359l-1.5-.257-.638-1.381a.209.209,0,0,0-.375-.01l-.708,1.346-1.51.18a.209.209,0,0,0-.125.353l1.061,1.089-.3,1.492a.209.209,0,0,0,.3.228l1.364-.673,1.328.742a.209.209,0,0,0,.309-.213" transform="translate(-86.539 -73.644)" fill="#f6e75b"/>
        <path id="Path_10301" data-name="Path 10301" d="M579.5,50.4l-.219-1.505,1.116-1.033a.209.209,0,0,0-.107-.359l-1.5-.257-.638-1.381a.209.209,0,0,0-.375-.01l-.708,1.346-1.51.18a.209.209,0,0,0-.125.353l1.062,1.089-.3,1.492a.209.209,0,0,0,.3.228l1.364-.673,1.328.742a.209.209,0,0,0,.309-.212" transform="translate(-449.124 -30.6)" fill="#ffbe6e"/>
        <path id="Path_10302" data-name="Path 10302" d="M432.475,4.657l-.219-1.505,1.116-1.033a.209.209,0,0,0-.107-.359l-1.5-.257L431.129.121a.209.209,0,0,0-.375-.01l-.708,1.346-1.51.18a.209.209,0,0,0-.125.353l1.061,1.089-.3,1.492a.209.209,0,0,0,.3.228l1.364-.673,1.328.742a.209.209,0,0,0,.309-.212" transform="translate(-357.46 12.691)" fill="#ee5543"/>
        <path id="Path_10303" data-name="Path 10303" d="M421.994,681.87h-19.95a1.449,1.449,0,0,1,0-2.9h19.95a1.449,1.449,0,1,1,0,2.9" transform="translate(-310.895 -526.938)" fill="#e49534"/>
        <path id="Path_10304" data-name="Path 10304" d="M420.182,668.924h-19.95a1.449,1.449,0,0,1,0-2.9h19.95a1.449,1.449,0,0,1,0,2.9" transform="translate(-309.489 -516.891)" fill="#ffbe6e"/>
        <path id="Path_10307" data-name="Path 10307" d="M418.034,630.086h-19.95a1.449,1.449,0,1,1,0-2.9h19.95a1.449,1.449,0,0,1,0,2.9" transform="translate(-303.77 -481.03)" fill="#ffbe6e"/>
        <path id="Path_10319" data-name="Path 10319" d="M580.161,537.128,560.04,539.9a1.476,1.476,0,0,1-.4-2.924l20.122-2.774a1.476,1.476,0,0,1,.4,2.924" transform="translate(-433.336 -414.576)" fill="#eaad4c"/>
        <path id="Path_10320" data-name="Path 10320" d="M628.073,550.384l-20.307-.457a1.476,1.476,0,1,1,.067-2.951l20.307.457a1.476,1.476,0,1,1-.066,2.951" transform="translate(-470.558 -424.499)" fill="#eaad4c"/>
        <path id="Path_10321" data-name="Path 10321" d="M627.983,550.3h-.035l-20.307-.457a1.512,1.512,0,0,1,.034-3.023h.035l20.307.457a1.512,1.512,0,0,1-.033,3.023m-20.308-3.408a1.44,1.44,0,0,0-.032,2.879l20.307.457h.033a1.44,1.44,0,0,0,.032-2.879l-20.307-.457h-.033" transform="translate(-470.434 -424.374)" fill="#eaad4c"/>
        <path id="Path_10322" data-name="Path 10322" d="M576.835,544.643l-18.942-7.333a1.476,1.476,0,1,1,1.065-2.752l18.942,7.333a1.476,1.476,0,1,1-1.066,2.752" transform="translate(-432.239 -414.784)" fill="#ffbe6e"/>
        <path id="Path_10323" data-name="Path 10323" d="M621.213,548.805l-18.942-7.333a1.476,1.476,0,0,1,1.066-2.752l18.942,7.333a1.476,1.476,0,1,1-1.065,2.752" transform="translate(-466.68 -418.014)" fill="#e49534"/>
        <path id="Path_10324" data-name="Path 10324" d="M545.82,569.23a19.854,19.854,0,0,0,2.425-9.2c-.353-5.182-9.435-13.359-9.523-18.552-.035-2.107,3.607-7.647,3.607-7.647l-26.547,9.488-26.4-9.488s3.643,5.541,3.607,7.647c-.088,5.193-9.17,13.37-9.522,18.552a19.856,19.856,0,0,0,2.425,9.2Z" transform="translate(-375.196 -414.298)" fill="#e2c4c4"/>
        <path id="Path_10325" data-name="Path 10325" d="M536.336,543.32l-26.4-9.488s1.227,1.867,2.25,3.846Z" transform="translate(-395.751 -414.298)" fill="#dcb0b0"/>
        <path id="Path_10326" data-name="Path 10326" d="M710.531,560.031c-.353-5.182-9.435-13.359-9.523-18.552-.035-2.106,3.607-7.647,3.607-7.647l-10.688,3.82a10.284,10.284,0,0,0-1.37,3.827c.088,5.193,9.17,13.37,9.522,18.552a19.855,19.855,0,0,1-2.425,9.2h8.451a19.857,19.857,0,0,0,2.425-9.2" transform="translate(-537.482 -414.298)" fill="#eee3e3"/>
        <path id="Path_10327" data-name="Path 10327" d="M524.561,536.646l-29.019-10.608a1.19,1.19,0,1,1,.817-2.236l28.2,10.309,29.126-10.669a1.19,1.19,0,1,1,.819,2.235Z" transform="translate(-383.975 -406.177)" fill="#dcb0b0"/>
        <path id="Path_10328" data-name="Path 10328" d="M619.632,566.3a3.463,3.463,0,1,1-3.463-3.463,3.463,3.463,0,0,1,3.463,3.463" transform="translate(-475.512 -436.808)" fill="#dcb0b0"/>
        <path id="Path_10329" data-name="Path 10329" d="M624.718,573.447a1.4,1.4,0,1,1-1.4-1.4,1.4,1.4,0,0,1,1.4,1.4" transform="translate(-482.659 -443.956)" fill="#eee3e3"/>
        <path id="Path_10334" data-name="Path 10334" d="M716.545,666.908a20.623,20.623,0,0,0-.038,3.318c.087.436.574,1.333.351,1.743a1.112,1.112,0,0,1-.478.512l-5.785.092c-.315.005-.107-.195.147-.378a11.727,11.727,0,0,1,2.08-1.131c.086-.041.4-.238.516-.307a3.978,3.978,0,0,0,.827-.719c.415-.455.452-2.66.452-2.66Z" transform="translate(-551.357 -517.576)" fill="#f5917e"/>
        <path id="Path_10335" data-name="Path 10335" d="M710.355,516.066s-2.486-1.226-2.008,1.44,4.121,32.644,4.121,32.644l3.412.189s.436-9.995.34-11.43a26.224,26.224,0,0,0-.661-3.656l-.29-8.867-3.219-10.948Z" transform="translate(-549.689 -400.023)" fill="#962c30"/>
        <path id="Path_10336" data-name="Path 10336" d="M711.894,683.656a5.319,5.319,0,0,0,3.293-.127,2.579,2.579,0,0,1,.265,1.354c-.141.4-.324.582-.5.586-1.4.036-5.136,0-6.2.011a.171.171,0,0,1-.135-.282,28.258,28.258,0,0,1,3.278-1.543" transform="translate(-549.913 -530.475)" fill="#00315d"/>
        <path id="Path_10337" data-name="Path 10337" d="M687.644,377.429a39.419,39.419,0,0,1-2.428-5.53c-.326-1.485-1.455-8.962-1.36-9.444s1.881-1.64,1.661-2.049-1.921-.41-2.311-.375a3.521,3.521,0,0,0-1.507.539c-.335.276.377,9.237.589,11.167s2.825,7.871,2.825,7.871Z" transform="translate(-528.986 -279.403)" fill="#f5917e"/>
        <path id="Path_10338" data-name="Path 10338" d="M781.706,563.857a20.619,20.619,0,0,0,2.12-2.553c.206-.394.394-1.4.826-1.575a1.111,1.111,0,0,1,.694-.1l4.55,3.573c.248.195-.04.218-.353.2a11.747,11.747,0,0,1-2.328-.432c-.093-.023-.463-.068-.594-.087a3.98,3.98,0,0,0-1.1.037c-.609.092-2.027,1.782-2.027,1.782Z" transform="translate(-606.669 -434.307)" fill="#f5917e"/>
        <path id="Path_10339" data-name="Path 10339" d="M794.514,562.552a5.319,5.319,0,0,0-2.638-1.976c.16-.456.334-1.052.631-1.235.363-.224.613-.178.753-.07,1.108.852,4.008,3.184,4.844,3.845a.171.171,0,0,1-.072.3,28.213,28.213,0,0,1-3.518-.867" transform="translate(-614.562 -433.971)" fill="#00315d"/>
        <path id="Path_10340" data-name="Path 10340" d="M723.525,413.423a6.408,6.408,0,0,0-4.3-3.729c-2.638-.374-6.042.906-5.695,3.66-.834,1.926-.629,4.58,1.036,5.881-.306,2.532,2.233,4.778,5.237,4.475a5.445,5.445,0,0,0,5.276,2.266,11.854,11.854,0,0,1,1.312-.242c-.154-.017,3.427,2.328,5.9-1.848-7.939-1.052-6.175-3.556-7.208-7.479" transform="translate(-553.391 -317.908)" fill="#0a121a"/>
        <path id="Path_10341" data-name="Path 10341" d="M713.057,514.864s5.576-2.479,5.663-2.2c.7,2.252,2.875,1.525,4.166,5.491.541,1.661,1.1,12.708,1.1,12.708s2.2-1.825,5.341-5.013c.241-.245,2.6,2,2.6,2-6.237,8.426-8.928,8.866-9.968,8.394-2.172-.985-6.756-14.761-6.749-14.759-.551-1.072-2.152-6.626-2.152-6.626" transform="translate(-553.392 -397.855)" fill="#b34b4e"/>
        <path id="Path_10342" data-name="Path 10342" d="M754.341,444.246s8.06-.01,9.785-.11c1.562-.09,7.756.068,8,.039s1.843-2.74,2.109-2.449-.891,1.345-.533,1.618,4.2-.339,4.151-.055c-.1.532-2.338.464-2.336.721s2.347-.144,2.506.282-2.256.174-2.352.364,2.24.538,2,.935c-.13.215-2.07-.36-2.06-.066s1.425.961,1.251,1.195-1.111-.717-1.932-.729-1.409-.44-2.72-.081c-.648.178-5.589.782-9.765,1.139-4.281.366-7.79.482-7.79.482Z" transform="translate(-585.432 -342.8)" fill="#f5917e"/>
        <path id="Path_10343" data-name="Path 10343" d="M696.4,443.238a10.244,10.244,0,0,1,.206-2.72c-.392-1.344-1.224-4.212-1.524-4.775,0,0,1.4-2.7,2.84-2.678,0,0,1.467,3.307,2.6,3.9a2.8,2.8,0,0,0,.57.17c1.1-.008,4.922-.124,5.636-.137l-.4,5.429c-2.773,5.436-2.022,8.288-.967,9.343.5.5-6.92,2.511-7.262,1.808a76.118,76.118,0,0,1-1.7-10.339" transform="translate(-539.443 -336.094)" fill="#58080d"/>
        <path id="Path_10344" data-name="Path 10344" d="M738.419,450.812c.706-.337,5.814-.168,5.814-.168s.714,3.557.137,4.412c0,0-4.567.68-4.437,1.054Z" transform="translate(-573.075 -349.704)" fill="#58080d"/>
        <path id="Path_10345" data-name="Path 10345" d="M720.774,437.738a26.486,26.486,0,0,0,0,2.748,2.828,2.828,0,0,1-2.542,2.735c-1.713.033-.252-1.818-.1-2.613s.33-3.908.33-3.908Z" transform="translate(-556.769 -338.916)" fill="#f5917e"/>
        <path id="Path_10346" data-name="Path 10346" d="M721.761,436.7s-.042.722-.1,1.56a1.992,1.992,0,0,0,2.38.581c.011-.6.034-1.1.034-1.1Z" transform="translate(-560.068 -338.916)" fill="#ef5c45"/>
        <path id="Path_10347" data-name="Path 10347" d="M721.85,415.285a2.844,2.844,0,0,1,1.514,1.26c.544.97.773,3.731-1.318,4.869s-3.525-.774-3.429-2.536.634-4.084,3.233-3.593" transform="translate(-557.703 -322.244)" fill="#f5917e"/>
        <path id="Path_10348" data-name="Path 10348" d="M716.524,425.656c.142.436.463.723.717.641s.345-.5.2-.94-.463-.723-.717-.641-.345.5-.2.94" transform="translate(-556.03 -329.605)" fill="#f5917e"/>
        <path id="Path_10349" data-name="Path 10349" d="M731.769,415.168s1.062,2.9,2.148,3.231.972,1.744.972,1.744.2-3.275-.781-4.1a4.36,4.36,0,0,0-2.339-.878" transform="translate(-567.914 -322.205)" fill="#0a121a"/>
        <path id="Path_10350" data-name="Path 10350" d="M738.923,429.919c-.177.447-.075.907.228,1.026s.691-.146.868-.594.075-.907-.227-1.026-.691.146-.868.594" transform="translate(-573.398 -333.17)" fill="#f5917e"/>
        <path id="Path_10351" data-name="Path 10351" d="M680.648,363.031s2.361.1,2.639.1,1.084-.834,1.084-.834Z" transform="translate(-528.24 -281.175)" fill="#ef5c45"/>
        <path id="Path_10352" data-name="Path 10352" d="M664.8,296.914a8.124,8.124,0,1,1-11.317-1.983,8.124,8.124,0,0,1,11.317,1.983" transform="translate(-504.474 -227.747)" fill="#ffbe6e"/>
        <path id="Path_10353" data-name="Path 10353" d="M668.261,302.195a6.817,6.817,0,1,1-9.5-1.664,6.817,6.817,0,0,1,9.5,1.664" transform="translate(-509.004 -232.276)" fill="#e49534"/>
        <path id="Path_10354" data-name="Path 10354" d="M692.432,360.619l.975-.876s-.46-.55-.269-.655c.311-.172.843.493.8.654a3.805,3.805,0,0,1-.619.682Z" transform="translate(-537.385 -278.66)" fill="#f5917e"/>
        <path id="Path_10355" data-name="Path 10355" d="M504.075,427.225l.394,1.522,1.575.286.321,1.737,1.773-.214.45,1.948,1.657,0,.739,1.8-.682.282-.552-1.348L508,433.241l-.432-1.873-1.8.217-.354-1.917-1.539-.279-.365-1.41-1.049.028-.018-.738Z" transform="translate(-389.936 -331.562)" fill="#fcd8a2"/>
        <path id="Path_10356" data-name="Path 10356" d="M658.89,212.7l1.491.5,1.1-1.167,1.633.675.785-1.6,1.88.682.9-1.388,1.915.36-.134.726-1.432-.269-.955,1.464-1.807-.656-.8,1.632-1.8-.745-1.071,1.139-1.382-.46-.547.9-.629-.387Z" transform="translate(-510.693 -163.287)" fill="#f6e75b"/>
        <path id="Path_10357" data-name="Path 10357" d="M178,116.789l-.751-1.677-1.3.392-.8-1.629-1.318.187-.756-1.146-.442.327,1.012,1.533,1.249-.178.831,1.695,1.281-.386.681,1.52Z" transform="translate(-133.979 -87.633)" fill="#f6e75b"/>
        <path id="Path_10358" data-name="Path 10358" d="M668.788,123.753l-.835-1.974-2.1-.431a.3.3,0,0,1-.134-.511l1.62-1.4-.239-2.13a.294.294,0,0,1,.445-.285l1.836,1.106,1.952-.885a.3.3,0,0,1,.409.335l-.485,2.088,1.445,1.583a.3.3,0,0,1-.192.492l-2.135.184-1.059,1.864a.3.3,0,0,1-.527-.031" transform="translate(-516.575 -90.782)" fill="#ffbe6e"/>
        <path id="Path_10359" data-name="Path 10359" d="M336.32,78.722l-1.3-.4-1.071.844a.187.187,0,0,1-.3-.145l-.018-1.363-1.133-.758a.187.187,0,0,1,.044-.333l1.291-.439.37-1.312a.187.187,0,0,1,.33-.061l.816,1.092,1.362-.053a.187.187,0,0,1,.16.3L336.08,77.2l.472,1.279a.187.187,0,0,1-.231.244" transform="translate(-229.831 -48.532)" fill="#ffbe6e"/>
        <path id="Path_10360" data-name="Path 10360" d="M55.54,240.443l-1.3-.4-1.071.844a.187.187,0,0,1-.3-.145l-.018-1.363-1.133-.758a.187.187,0,0,1,.044-.333l1.291-.439.37-1.312a.187.187,0,0,1,.33-.061l.816,1.092,1.362-.053a.187.187,0,0,1,.16.3l-.786,1.114.472,1.279a.187.187,0,0,1-.231.244" transform="translate(-40.068 -183.463)" fill="#ee5543"/>
        <path id="Path_10368" data-name="Path 10368" d="M127.134,392.393l-4.111-.654,1.121.178a1.514,1.514,0,0,1-.476,2.99l-1.121-.178,1.886,2.6" transform="translate(-69.373 -262.792)" fill="none" stroke="#fff" stroke-linecap="round" stroke-linejoin="round" stroke-width="0.6"/>
        <g id="Group_14854" data-name="Group 14854" transform="translate(5.978 2.984)">
          <path id="Path_10265" data-name="Path 10265" d="M112.437,378.935a7.651,7.651,0,1,1-5.764-9.156,7.651,7.651,0,0,1,5.764,9.156" transform="translate(-75.531 -286.83)" fill="#ffbe6e"/>
          <path id="Path_10266" data-name="Path 10266" d="M115.5,382.928a6.42,6.42,0,1,1-4.837-7.684,6.42,6.42,0,0,1,4.837,7.684" transform="translate(-79.797 -291.096)" fill="#e49534"/>
          <path id="Path_10361" data-name="Path 10361" d="M127.134,392.393l-4.111-.654,1.121.178a1.514,1.514,0,0,1-.476,2.99l-1.121-.178,1.886,2.6" transform="translate(-95.105 -304.022)" fill="none" stroke="#fff" stroke-linecap="round" stroke-linejoin="round" stroke-width="0.6"/>
          <line id="Line_280" data-name="Line 280" x2="4.111" y2="0.654" transform="translate(27.715 88.987)" fill="none" stroke="#fff" stroke-linecap="round" stroke-linejoin="round" stroke-width="0.6"/>
        </g>
        <line id="Line_287" data-name="Line 287" x2="4.111" y2="0.654" transform="translate(53.447 130.217)" fill="none" stroke="#fff" stroke-linecap="round" stroke-linejoin="round" stroke-width="0.6"/>
        <g id="Group_14855" data-name="Group 14855" transform="translate(-5.479 -1.613)">
          <path id="Path_10317" data-name="Path 10317" d="M543.024,288.01a7.651,7.651,0,1,1-10.658-1.867,7.651,7.651,0,0,1,10.658,1.867" transform="translate(-426.992 -227.945)" fill="#ffbe6e"/>
          <path id="Path_10318" data-name="Path 10318" d="M546.283,292.982a6.42,6.42,0,1,1-8.943-1.567,6.42,6.42,0,0,1,8.943,1.567" transform="translate(-431.258 -232.21)" fill="#e49534"/>
          <g id="Group_14853" data-name="Group 14853" transform="translate(-16.359 -6.952)">
            <path id="Path_10362" data-name="Path 10362" d="M563.084,306.707l-3.733-1.843,1.018.5a1.514,1.514,0,1,1-1.341,2.715l-1.018-.5,1.031,3.041" transform="translate(-433.063 -236.6)" fill="none" stroke="#fff" stroke-linecap="round" stroke-linejoin="round" stroke-width="0.6"/>
            <line id="Line_281" data-name="Line 281" x2="3.733" y2="1.843" transform="translate(125.721 69.417)" fill="none" stroke="#fff" stroke-linecap="round" stroke-linejoin="round" stroke-width="0.6"/>
          </g>
        </g>
        <g id="Group_14856" data-name="Group 14856" transform="translate(1.037 7.651)">
          <path id="Path_10315" data-name="Path 10315" d="M561.357,170.871a7.651,7.651,0,1,1-10.765-1.087,7.651,7.651,0,0,1,10.765,1.087" transform="translate(-425.123 -130.428)" fill="#ffbe6e"/>
          <path id="Path_10316" data-name="Path 10316" d="M564.669,175.915a6.42,6.42,0,1,1-9.033-.912,6.42,6.42,0,0,1,9.033.912" transform="translate(-429.389 -134.693)" fill="#e49534"/>
          <path id="Path_10363" data-name="Path 10363" d="M576.771,191.421l-3.915,1.414,1.068-.386a1.514,1.514,0,1,1,1.029,2.848l-1.068.386,2.907,1.364" transform="translate(-444.584 -148.559)" fill="none" stroke="#fff" stroke-linecap="round" stroke-linejoin="round" stroke-width="0.6"/>
          <line id="Line_282" data-name="Line 282" y1="1.414" x2="3.915" transform="translate(128.709 44.072)" fill="none" stroke="#fff" stroke-linecap="round" stroke-linejoin="round" stroke-width="0.6"/>
        </g>
        <path id="Path_10364" data-name="Path 10364" d="M684.622,318.469l-4.068-.883,1.109.241a1.514,1.514,0,0,1-.642,2.959l-1.11-.241,1.737,2.7" transform="translate(-527.668 -246.473)" fill="none" stroke="#fff" stroke-linecap="round" stroke-linejoin="round" stroke-width="0.6"/>
        <line id="Line_283" data-name="Line 283" x2="4.068" y2="0.883" transform="translate(152.613 72.369)" fill="none" stroke="#fff" stroke-linecap="round" stroke-linejoin="round" stroke-width="0.6"/>
        <g id="Group_14851" data-name="Group 14851" transform="translate(-3.615 -2.735)">
          <path id="Path_10311" data-name="Path 10311" d="M160.029,228.875a7.651,7.651,0,1,1-5.764-9.157,7.651,7.651,0,0,1,5.764,9.157" transform="translate(-112.467 -170.371)" fill="#ffbe6e"/>
          <path id="Path_10312" data-name="Path 10312" d="M163.1,232.869a6.42,6.42,0,1,1-4.837-7.683,6.42,6.42,0,0,1,4.837,7.683" transform="translate(-116.732 -174.638)" fill="#e49534"/>
          <path id="Path_10365" data-name="Path 10365" d="M171.456,240.032l-3.9,1.455,1.064-.4a1.514,1.514,0,1,1,1.058,2.837l-1.064.4,2.921,1.334" transform="translate(-130.037 -186.285)" fill="none" stroke="#fff" stroke-linecap="round" stroke-linejoin="round" stroke-width="0.6"/>
          <line id="Line_284" data-name="Line 284" y1="1.455" x2="3.9" transform="translate(37.969 54.952)" fill="none" stroke="#fff" stroke-linecap="round" stroke-linejoin="round" stroke-width="0.6"/>
        </g>
        <g id="Group_14852" data-name="Group 14852" transform="translate(-21.394 13.21)">
          <path id="Path_10313" data-name="Path 10313" d="M401.622,109.157a7.651,7.651,0,1,1-7.467-7.83,7.651,7.651,0,0,1,7.467,7.83" transform="translate(-299.818 -78.636)" fill="#ffbe6e"/>
          <path id="Path_10314" data-name="Path 10314" d="M404.658,113.393a6.42,6.42,0,1,1-6.266-6.571,6.42,6.42,0,0,1,6.266,6.571" transform="translate(-304.084 -82.902)" fill="#e49534"/>
          <path id="Path_10367" data-name="Path 10367" d="M414.926,123.095l-4.1.747,1.117-.2a1.514,1.514,0,1,1,.543,2.978l-1.117.2,2.642,1.826" transform="translate(-318.838 -95.532)" fill="none" stroke="#fff" stroke-linecap="round" stroke-linejoin="round" stroke-width="0.6"/>
          <line id="Line_286" data-name="Line 286" y1="0.747" x2="4.095" transform="translate(92.223 28.828)" fill="none" stroke="#fff" stroke-linecap="round" stroke-linejoin="round" stroke-width="0.6"/>
        </g>
      </g>
    </g>
  </g>
</svg>
